<svg width="20" height="20" viewBox="0 0 20 20" fill="none" xmlns="http://www.w3.org/2000/svg">
<g clip-path="url(#clip0_325_79)">
<path d="M3.34942 0.380255C3.39207 0.38018 3.43472 0.380106 3.47865 0.380029C3.56831 0.379976 3.65796 0.380118 3.74761 0.380446C3.88372 0.380864 4.01981 0.380449 4.15592 0.37995C4.24354 0.380002 4.33115 0.380102 4.41876 0.380255C4.45889 0.380097 4.49902 0.379939 4.54037 0.379776C5.12466 0.383504 5.62282 0.518483 6.05587 0.929572C6.37625 1.28809 6.49833 1.67804 6.5234 2.14844C6.57053 2.15207 6.57053 2.15207 6.61862 2.15577C7.07626 2.26014 7.46552 2.62952 7.71156 3.01729C7.94397 3.42208 7.95543 3.82948 7.95217 4.28382C7.95162 4.3903 7.95297 4.49665 7.95445 4.60313C7.95448 4.67143 7.95441 4.73974 7.95422 4.80805C7.95474 4.83955 7.95525 4.87105 7.95579 4.9035C7.95204 5.13123 7.89829 5.23177 7.73434 5.39063C7.61446 5.45057 7.48861 5.43614 7.35703 5.43661C7.32615 5.43686 7.29527 5.43712 7.26346 5.43739C7.16102 5.43816 7.05858 5.43861 6.95614 5.439C6.90368 5.43924 6.90368 5.43924 6.85016 5.43948C6.665 5.4403 6.47984 5.44086 6.29467 5.44122C6.10351 5.44166 5.91236 5.443 5.7212 5.44455C5.57415 5.44557 5.42711 5.4459 5.28006 5.44604C5.2096 5.44623 5.13914 5.44668 5.06869 5.44741C4.96994 5.44836 4.87124 5.44832 4.77249 5.44805C4.72902 5.4488 4.72902 5.4488 4.68466 5.44957C4.48527 5.44758 4.37207 5.39936 4.21871 5.27344C4.12685 5.11893 4.12861 4.96051 4.12884 4.78501C4.12867 4.75692 4.12851 4.72883 4.12833 4.69989C4.12811 4.64049 4.12809 4.5811 4.12826 4.52171C4.12838 4.43238 4.12747 4.3431 4.12648 4.25378C4.12366 3.60776 4.25706 3.11226 4.70578 2.63138C4.93782 2.41473 5.29386 2.14844 5.62496 2.14844C5.57784 1.8694 5.50963 1.67239 5.29537 1.47462C5.01359 1.28218 4.71013 1.28291 4.38046 1.28251C4.34357 1.28238 4.30668 1.28225 4.26867 1.28211C4.19079 1.28192 4.11291 1.28182 4.03504 1.28183C3.91692 1.28175 3.79881 1.28104 3.68069 1.28029C3.6047 1.28018 3.52871 1.2801 3.45272 1.28007C3.41788 1.27979 3.38304 1.2795 3.34714 1.27922C2.95803 1.28061 2.62985 1.32204 2.34371 1.60157C2.17598 1.80334 2.14258 1.98403 2.14222 2.24009C2.14203 2.26954 2.14184 2.29899 2.14164 2.32933C2.14104 2.4283 2.14071 2.52726 2.14038 2.62622C2.14001 2.69705 2.13962 2.76788 2.13921 2.83871C2.13815 3.03127 2.13733 3.22382 2.13655 3.41638C2.1357 3.61751 2.13463 3.81864 2.13358 4.01977C2.13163 4.40077 2.12988 4.78176 2.12819 5.16276C2.12626 5.59646 2.12412 6.03015 2.12195 6.46385C2.11751 7.35611 2.11333 8.24837 2.10934 9.14063C2.14467 9.1406 2.17999 9.14057 2.21639 9.14054C4.30957 9.13879 6.40275 9.13745 8.49593 9.13664C8.7472 9.13654 8.99847 9.13644 9.24974 9.13634C9.29976 9.13632 9.34979 9.1363 9.40133 9.13628C10.2116 9.13594 11.0218 9.13532 11.832 9.1346C12.6632 9.13387 13.4944 9.13344 14.3257 9.13328C14.8387 9.13317 15.3517 9.13283 15.8647 9.1322C16.2164 9.13179 16.568 9.13166 16.9197 9.13176C17.1227 9.13181 17.3256 9.13174 17.5286 9.13132C17.7145 9.13094 17.9003 9.13092 18.0862 9.13119C18.1534 9.13122 18.2206 9.13112 18.2878 9.13087C18.7788 9.12919 19.2043 9.13912 19.6093 9.45313C19.9184 9.76686 20.0208 10.0672 20.0222 10.5018C20.0122 10.7716 19.9174 10.9882 19.7656 11.2109C19.7453 11.2276 19.725 11.2442 19.7041 11.2613C19.624 11.3574 19.6334 11.4281 19.6328 11.552C19.6322 11.5981 19.6317 11.6441 19.6312 11.6916C19.6312 11.7417 19.6312 11.7917 19.6312 11.8433C19.6307 11.8956 19.6302 11.948 19.6296 12.0003C19.6282 12.1388 19.6274 12.2772 19.6268 12.4156C19.6257 12.661 19.624 12.9064 19.6214 13.1519C19.6211 13.1782 19.6208 13.2045 19.6206 13.2316C19.6042 14.6371 19.2703 15.9723 18.2829 17.0227C18.2009 17.1092 18.2009 17.1092 18.1263 17.2087C18.0452 17.3067 17.9628 17.3775 17.8613 17.4536C17.8145 17.489 17.8145 17.489 17.7667 17.5252C17.7431 17.5427 17.7196 17.5601 17.6953 17.5781C17.7192 17.7491 17.7852 17.887 17.865 18.0379C17.8914 18.0892 17.9178 18.1406 17.9441 18.1919C17.9856 18.272 18.0273 18.3519 18.0691 18.4318C18.1097 18.5094 18.1497 18.5873 18.1897 18.6653C18.2022 18.6887 18.2146 18.7121 18.2275 18.7363C18.3361 18.9497 18.3926 19.154 18.3178 19.3872C18.2245 19.5167 18.1593 19.5598 18.0078 19.6094C17.7963 19.6057 17.6908 19.558 17.539 19.4141C17.4813 19.3179 17.4313 19.226 17.3832 19.1254C17.3696 19.0978 17.356 19.0703 17.342 19.042C17.299 18.9546 17.2567 18.867 17.2143 18.7793C17.1851 18.7198 17.1559 18.6603 17.1267 18.6008C17.0553 18.4554 16.9845 18.3098 16.914 18.1641C16.7596 18.1641 16.6461 18.2275 16.5088 18.291C15.8568 18.5835 15.1636 18.7562 14.4475 18.7555C14.4082 18.7556 14.3689 18.7557 14.3284 18.7558C14.1969 18.7562 14.0654 18.7562 13.9339 18.7563C13.8395 18.7565 13.7451 18.7567 13.6507 18.7569C13.3944 18.7574 13.138 18.7577 12.8817 18.7578C12.7213 18.7579 12.561 18.7581 12.4006 18.7583C11.9559 18.7588 11.5111 18.7592 11.0664 18.7593C11.0379 18.7593 11.0095 18.7593 10.9802 18.7593C10.9375 18.7593 10.9375 18.7593 10.8939 18.7593C10.8361 18.7594 10.7784 18.7594 10.7206 18.7594C10.6777 18.7594 10.6777 18.7594 10.6338 18.7594C10.1705 18.7596 9.70721 18.7603 9.24391 18.7612C8.76721 18.7621 8.29052 18.7626 7.81383 18.7626C7.5466 18.7627 7.27938 18.7629 7.01215 18.7636C6.76046 18.7643 6.50878 18.7643 6.25709 18.764C6.16515 18.7639 6.07321 18.7641 5.98127 18.7645C4.96722 18.7685 4.03451 18.5923 3.12496 18.125C3.10967 18.1541 3.10967 18.1541 3.09407 18.1838C3.02803 18.3095 2.96199 18.4352 2.89568 18.5608C2.81106 18.7211 2.7268 18.8814 2.64431 19.0428C2.63059 19.0694 2.61687 19.0959 2.60273 19.1232C2.57716 19.1727 2.55186 19.2223 2.5269 19.2721C2.45766 19.405 2.39605 19.4944 2.26559 19.5703C2.10127 19.6168 1.99403 19.6235 1.84323 19.5459C1.71238 19.4484 1.66932 19.4159 1.64059 19.2578C1.65629 19.0223 1.7096 18.853 1.81881 18.6455C1.83254 18.6185 1.84626 18.5914 1.8604 18.5636C1.90388 18.4782 1.94799 18.3932 1.99215 18.3081C2.03618 18.2223 2.08007 18.1364 2.1239 18.0505C2.15111 17.9973 2.17845 17.9442 2.20594 17.8912C2.25935 17.7876 2.3068 17.6889 2.34371 17.5781C2.32141 17.5682 2.2991 17.5582 2.27612 17.5479C1.44235 17.0973 0.862762 15.9339 0.599139 15.0718C0.421139 14.4443 0.385105 13.8051 0.381282 13.156C0.381105 13.1298 0.380928 13.1036 0.380746 13.0766C0.379153 12.831 0.378171 12.5854 0.378659 12.3398C0.378888 12.2039 0.378174 12.0681 0.376867 11.9322C0.37641 11.8564 0.376996 11.7807 0.377607 11.7049C0.381235 11.424 0.381235 11.424 0.255645 11.1835C0.222833 11.1539 0.190021 11.1243 0.156215 11.0938C-0.0428962 10.7657 -0.0580748 10.3724 0.0257522 10.0038C0.163887 9.61573 0.409707 9.40451 0.771144 9.22379C0.88162 9.18551 0.967271 9.16889 1.08214 9.15741C1.11362 9.15418 1.1451 9.15095 1.17753 9.14763C1.20144 9.14532 1.22534 9.14301 1.24996 9.14063C1.24982 9.10318 1.24968 9.06573 1.24953 9.02714C1.24606 8.11489 1.24349 7.20263 1.24187 6.29038C1.24106 5.84921 1.23997 5.40805 1.23818 4.96689C1.23662 4.58226 1.23561 4.19765 1.23526 3.81302C1.23506 3.60946 1.23458 3.4059 1.23344 3.20234C1.23238 3.01052 1.23206 2.8187 1.23229 2.62687C1.23225 2.55669 1.23194 2.48651 1.23134 2.41633C1.22653 1.82654 1.31647 1.39524 1.71871 0.937506C2.18206 0.48627 2.72126 0.377785 3.34942 0.380255ZM5.19528 3.39844C4.92995 3.74903 4.99996 4.13798 4.99996 4.57032C5.68317 4.57032 6.36637 4.57032 7.07028 4.57032C7.10975 3.82594 7.10975 3.82594 6.78707 3.24708C6.58006 3.06032 6.35195 2.9426 6.07098 2.92374C5.70942 2.94652 5.43214 3.13597 5.19528 3.39844ZM0.900844 10.2075C0.850951 10.3337 0.83971 10.4123 0.85934 10.5469C0.955474 10.7035 1.0374 10.7667 1.2109 10.8203C1.3119 10.8276 1.4086 10.8309 1.50952 10.8303C1.55439 10.8304 1.55439 10.8304 1.60016 10.8306C1.70074 10.831 1.80131 10.8307 1.90189 10.8305C1.97459 10.8306 2.04729 10.8308 2.11998 10.831C2.32003 10.8314 2.52007 10.8313 2.72012 10.8311C2.93575 10.831 3.15138 10.8314 3.36701 10.8317C3.78955 10.8322 4.21208 10.8322 4.63461 10.8321C4.97793 10.8321 5.32125 10.8321 5.66457 10.8323C5.71338 10.8323 5.76219 10.8323 5.81248 10.8324C5.91163 10.8324 6.01078 10.8325 6.10993 10.8325C6.77589 10.8328 7.44185 10.833 8.10781 10.8328C8.13386 10.8328 8.15991 10.8328 8.18674 10.8328C8.31877 10.8328 8.45079 10.8327 8.58281 10.8327C8.62214 10.8327 8.62214 10.8327 8.66227 10.8327C8.71529 10.8327 8.76832 10.8326 8.82134 10.8326C9.64663 10.8324 10.4719 10.8327 11.2972 10.8335C12.2242 10.8343 13.1511 10.8347 14.0781 10.8345C14.569 10.8344 15.0599 10.8345 15.5508 10.8351C15.9686 10.8356 16.3865 10.8356 16.8044 10.8351C17.0177 10.8349 17.231 10.8349 17.4443 10.8353C17.6394 10.8358 17.8345 10.8356 18.0296 10.8351C18.1004 10.835 18.1711 10.8351 18.2419 10.8354C18.3377 10.8358 18.4336 10.8355 18.5295 10.835C18.5572 10.8352 18.5849 10.8355 18.6134 10.8358C18.8228 10.8335 18.9473 10.7792 19.0942 10.6323C19.157 10.5166 19.1565 10.4427 19.1406 10.3125C19.0754 10.176 19.0336 10.124 18.9062 10.0391C18.7438 9.99382 18.5823 9.99445 18.4149 9.99487C18.3853 9.99479 18.3557 9.99471 18.3252 9.99463C18.2256 9.99441 18.126 9.99446 18.0264 9.99452C17.9544 9.99442 17.8824 9.9943 17.8104 9.99417C17.6123 9.99385 17.4142 9.99378 17.216 9.99375C17.0025 9.99368 16.7889 9.99339 16.5754 9.99312C16.1083 9.99259 15.6413 9.99236 15.1742 9.99219C14.8827 9.99208 14.5912 9.99191 14.2997 9.99174C13.4928 9.99126 12.686 9.99086 11.8792 9.99073C11.827 9.99072 11.7748 9.99071 11.7227 9.9907C11.6704 9.99069 11.6181 9.99068 11.5658 9.99067C11.4609 9.99066 11.356 9.99064 11.2511 9.99062C11.2121 9.99062 11.2121 9.99062 11.1723 9.99061C10.3286 9.99047 9.48491 9.98985 8.64124 9.98893C7.74927 9.98797 6.85729 9.98744 5.96532 9.98739C5.47908 9.98736 4.99284 9.98713 4.5066 9.98642C4.09266 9.98582 3.67872 9.98562 3.26477 9.98594C3.05351 9.9861 2.84224 9.98606 2.63098 9.98551C2.43764 9.98501 2.24431 9.98506 2.05097 9.98553C1.98097 9.98561 1.91096 9.98549 1.84096 9.98515C1.74589 9.98472 1.65084 9.98501 1.55576 9.98548C1.52852 9.98518 1.50128 9.98488 1.47322 9.98458C1.24915 9.98697 1.04941 10.0302 0.900844 10.2075ZM1.24996 11.6797C1.20748 14.4349 1.20748 14.4349 2.53903 16.6016C2.56415 16.6296 2.58928 16.6576 2.61517 16.6864C3.08978 17.2012 3.76093 17.5054 4.41891 17.7075C4.44964 17.717 4.48036 17.7265 4.51202 17.7362C5.07918 17.9012 5.63456 17.9021 6.22017 17.9014C6.31153 17.9015 6.40289 17.9017 6.49425 17.902C6.74123 17.9025 6.9882 17.9025 7.23517 17.9024C7.46815 17.9024 7.70112 17.9026 7.93409 17.9028C8.42383 17.9032 8.91356 17.9032 9.40329 17.9029C9.84991 17.9027 10.2965 17.9032 10.7431 17.9039C11.2032 17.9047 11.6634 17.905 12.1235 17.9048C12.3812 17.9048 12.6389 17.9049 12.8966 17.9054C13.1391 17.9059 13.3816 17.9058 13.6241 17.9053C13.7127 17.9052 13.8012 17.9053 13.8897 17.9057C14.5395 17.9079 15.148 17.8637 15.7666 17.6489C15.8009 17.6372 15.8353 17.6254 15.8707 17.6133C16.9651 17.2253 17.818 16.4333 18.33 15.397C18.8821 14.2258 18.75 12.9575 18.75 11.6797C12.975 11.6797 7.19997 11.6797 1.24996 11.6797Z" fill="#00567A"/>
</g>
<defs>
<clipPath id="clip0_325_79">
<rect width="20" height="20" fill="white"/>
</clipPath>
</defs>
</svg>
