<svg width="20" height="20" viewBox="0 0 20 20" fill="none" xmlns="http://www.w3.org/2000/svg">
<g clip-path="url(#clip0_325_75)">
<path d="M1.46226 2.54898C1.80926 2.76374 2.0381 3.0428 2.14844 3.4375C2.16912 3.55576 2.17976 3.66896 2.18751 3.78906C2.31487 3.78906 2.39235 3.75142 2.50702 3.70056C2.84785 3.56306 3.22166 3.6244 3.55469 3.75C3.88198 3.9147 4.16902 4.17893 4.3042 4.52392C4.32935 4.60402 4.35266 4.6847 4.37501 4.76562C4.38374 4.79589 4.39247 4.82615 4.40146 4.85733C4.43105 4.96079 4.45938 5.06453 4.48731 5.16845C4.49669 5.20206 4.50606 5.23566 4.51572 5.27028C4.56514 5.46385 4.58929 5.59597 4.49219 5.78125C4.34686 5.87814 4.27352 5.87747 4.10157 5.85937C3.96615 5.75136 3.91895 5.65668 3.87574 5.49103C3.85905 5.42992 3.85905 5.42992 3.84202 5.36758C3.83099 5.32523 3.81996 5.28289 3.8086 5.23926C3.67953 4.73557 3.67953 4.73557 3.32032 4.375C3.11383 4.27416 2.91501 4.28494 2.69532 4.33594C2.60724 4.38052 2.53953 4.43128 2.46094 4.49219C2.43516 4.49219 2.40938 4.49219 2.38282 4.49219C2.14735 4.94629 2.21421 5.33972 2.34925 5.82C2.36188 5.86647 2.37452 5.91294 2.38754 5.96082C2.41418 6.05826 2.44111 6.15562 2.46832 6.2529C2.50983 6.40157 2.55022 6.55051 2.59049 6.69952C2.61662 6.79455 2.64281 6.88956 2.66907 6.98456C2.68709 7.05103 2.68709 7.05103 2.70547 7.11884C2.79258 7.4272 2.88569 7.67045 3.16239 7.85217C3.385 7.95943 3.60647 7.95149 3.8379 7.87597C4.05155 7.7784 4.16322 7.63394 4.25782 7.42187C4.29812 7.28258 4.2991 7.15261 4.29169 7.00851C4.27993 6.74083 4.27993 6.74083 4.37745 6.61377C4.52676 6.54705 4.60933 6.55815 4.76563 6.60156C4.92102 6.72646 4.9399 6.87977 4.96094 7.07031C4.96764 7.32936 4.93141 7.52683 4.82233 7.76216C4.80447 7.80085 4.78662 7.83954 4.76823 7.8794C4.7476 7.92363 4.7476 7.92363 4.72657 7.96875C4.77108 7.96857 4.81559 7.96839 4.86145 7.9682C5.94379 7.96387 7.02612 7.96066 8.10846 7.95863C8.2126 7.95843 8.31673 7.95823 8.42086 7.95802C8.45969 7.95794 8.45969 7.95794 8.4993 7.95786C8.89243 7.95707 9.28556 7.95569 9.67868 7.95401C10.1348 7.95207 10.5909 7.95081 11.047 7.95037C11.2886 7.95012 11.5302 7.94952 11.7718 7.9481C11.9991 7.94677 12.2264 7.94636 12.4537 7.94666C12.5372 7.9466 12.6207 7.94621 12.7042 7.94547C12.818 7.9445 12.9319 7.94473 13.0457 7.94526C13.0955 7.94441 13.0955 7.94441 13.1463 7.94354C13.3161 7.9457 13.3792 7.95349 13.5171 8.06266C13.5938 8.16406 13.5938 8.16406 13.6112 8.24737C13.607 8.27305 13.6029 8.29873 13.5986 8.32519C13.5955 8.35108 13.5924 8.37696 13.5892 8.40362C13.5375 8.51283 13.4661 8.54035 13.3594 8.59375C13.2508 8.60834 13.2508 8.60834 13.1304 8.60827C13.0845 8.60854 13.0387 8.6088 12.9915 8.60907C12.9416 8.60877 12.8916 8.60847 12.8402 8.60816C12.7868 8.60825 12.7334 8.6084 12.68 8.6086C12.5651 8.60893 12.4503 8.6089 12.3355 8.6086C12.1537 8.60814 11.972 8.60862 11.7903 8.60925C11.3388 8.61066 10.8873 8.6109 10.4358 8.6108C10.085 8.61074 9.73418 8.61102 9.38336 8.61237C9.20289 8.61302 9.02244 8.61295 8.84196 8.61233C8.7294 8.61211 8.61685 8.61253 8.50429 8.61312C8.42766 8.61334 8.35102 8.61278 8.2744 8.61219C7.99812 8.61443 7.81131 8.63629 7.57813 8.78906C7.01927 9.49122 7.35799 10.5555 7.34376 11.3672C10.7984 11.3672 14.2531 11.3672 17.8125 11.3672C17.985 10.0171 17.985 10.0171 17.5554 8.75952C17.2912 8.57899 16.9898 8.60652 16.6829 8.60931C16.6225 8.6091 16.5621 8.60878 16.5017 8.60836C16.3435 8.60747 16.1853 8.60763 16.0271 8.60812C15.7735 8.60884 15.5199 8.60845 15.2662 8.60711C15.1779 8.60687 15.0896 8.60739 15.0013 8.60797C14.9471 8.60786 14.8928 8.60771 14.8385 8.60754C14.7913 8.60769 14.7441 8.60785 14.6955 8.60801C14.5582 8.59236 14.4848 8.55906 14.375 8.47656C14.3146 8.35579 14.3245 8.25803 14.3359 8.125C14.3976 8.03929 14.3976 8.03929 14.4922 7.96875C14.6178 7.94891 14.6178 7.94891 14.7685 7.94853C14.8098 7.94812 14.8098 7.94812 14.8519 7.9477C14.9428 7.94701 15.0337 7.94747 15.1247 7.948C15.1882 7.94789 15.2518 7.94774 15.3153 7.94754C15.4487 7.94731 15.582 7.94765 15.7154 7.94838C15.8853 7.94926 16.0551 7.94876 16.225 7.94782C16.3564 7.94725 16.4878 7.94744 16.6192 7.94784C16.6817 7.94794 16.7443 7.94782 16.8068 7.94745C17.3258 7.94508 17.7309 8.00618 18.1184 8.37829C18.3196 8.61173 18.438 8.88504 18.4499 9.19235C18.4515 9.23251 18.4531 9.27266 18.4548 9.31404C18.4564 9.35591 18.4579 9.39778 18.4595 9.44092C18.4612 9.48324 18.4629 9.52556 18.4646 9.56917C18.4687 9.67371 18.4727 9.77826 18.4766 9.88281C18.5001 9.87198 18.5237 9.86116 18.548 9.85C18.5792 9.83585 18.6104 9.8217 18.6426 9.80713C18.6734 9.79308 18.7042 9.77903 18.736 9.76455C18.9279 9.68542 19.1079 9.67914 19.314 9.67773C19.3433 9.67693 19.3726 9.67612 19.4029 9.67529C19.5829 9.67402 19.6988 9.68711 19.8438 9.80469C19.974 9.93664 20.018 10.0288 20.0211 10.2153C20.0208 10.243 20.0204 10.2707 20.0201 10.2992C20.0204 10.3291 20.0207 10.3589 20.0209 10.3896C20.0216 10.4894 20.0212 10.5892 20.0208 10.689C20.0211 10.7606 20.0215 10.8322 20.0219 10.9038C20.0227 11.0983 20.0226 11.2927 20.0223 11.4871C20.0221 11.6494 20.0224 11.8117 20.0227 11.974C20.0233 12.3569 20.0232 12.7399 20.0225 13.1228C20.0219 13.5178 20.0225 13.9128 20.0237 14.3078C20.0248 14.647 20.0251 14.9862 20.0247 15.3254C20.0245 15.5279 20.0246 15.7305 20.0254 15.9331C20.0261 16.1236 20.0259 16.314 20.025 16.5045C20.0248 16.5744 20.0249 16.6443 20.0254 16.7142C20.026 16.8096 20.0254 16.905 20.0245 17.0005C20.0252 17.0419 20.0252 17.0419 20.0259 17.0842C20.0218 17.3022 19.9532 17.391 19.8047 17.5391C19.6447 17.6327 19.4805 17.6292 19.2995 17.6289C19.27 17.6291 19.2404 17.6293 19.21 17.6294C19.1478 17.6297 19.0856 17.6297 19.0234 17.6295C18.9287 17.6294 18.834 17.6303 18.7392 17.6313C18.6786 17.6314 18.6179 17.6314 18.5573 17.6314C18.5152 17.6319 18.5152 17.6319 18.4722 17.6325C18.2884 17.6308 18.1641 17.5962 18.0078 17.5C17.8103 17.2971 17.8076 17.1136 17.8081 16.8398C17.8081 16.8135 17.8081 16.7871 17.8081 16.76C17.8081 16.6736 17.8084 16.5871 17.8087 16.5007C17.8088 16.4405 17.8088 16.3804 17.8089 16.3202C17.809 16.1623 17.8094 16.0044 17.8098 15.8465C17.8102 15.6852 17.8104 15.5239 17.8106 15.3626C17.811 15.0464 17.8117 14.7302 17.8125 14.4141C17.7828 14.4141 17.7531 14.4142 17.7226 14.4142C15.9644 14.4177 14.2062 14.4204 12.448 14.422C12.2371 14.4222 12.0261 14.4224 11.8151 14.4226C11.7521 14.4227 11.7521 14.4227 11.6878 14.4228C11.0072 14.4234 10.3266 14.4247 9.64594 14.4261C8.94784 14.4276 8.24975 14.4284 7.55166 14.4288C7.1207 14.429 6.68976 14.4297 6.2588 14.4309C5.96351 14.4317 5.66821 14.432 5.37291 14.4318C5.2024 14.4317 5.03189 14.4319 4.86138 14.4327C4.70536 14.4334 4.54935 14.4335 4.39332 14.433C4.3368 14.4329 4.28028 14.4331 4.22376 14.4336C4.14706 14.4342 4.07036 14.4338 3.99366 14.4333C3.92969 14.4334 3.92969 14.4334 3.86443 14.4335C3.72252 14.4094 3.6568 14.3573 3.55469 14.2578C3.53013 14.1797 3.53013 14.1797 3.53272 14.1016C3.53267 14.0758 3.53262 14.05 3.53257 14.0234C3.56488 13.9094 3.61939 13.8634 3.71094 13.7891C3.82077 13.7697 3.82077 13.7697 3.9504 13.7698C3.99983 13.7695 4.04926 13.7692 4.10019 13.7689C4.15516 13.7693 4.21012 13.7698 4.26508 13.7703C4.32338 13.7702 4.38168 13.7701 4.43999 13.7699C4.60042 13.7695 4.76084 13.7701 4.92127 13.7709C5.09418 13.7716 5.2671 13.7714 5.44002 13.7713C5.73969 13.7712 6.03935 13.7717 6.33902 13.7725C6.77228 13.7738 7.20555 13.7742 7.63882 13.7744C8.34174 13.7748 9.04465 13.7758 9.74757 13.7773C10.4305 13.7787 11.1134 13.7798 11.7963 13.7805C11.8594 13.7805 11.8594 13.7805 11.9238 13.7806C12.1349 13.7808 12.346 13.781 12.5571 13.7812C14.3089 13.7828 16.0607 13.7856 17.8125 13.7891C17.8125 13.1961 17.8125 12.6031 17.8125 11.9922C12.6434 11.9922 7.47422 11.9922 2.14844 11.9922C2.14844 12.5852 2.14844 13.1781 2.14844 13.7891C2.30313 13.7891 2.45782 13.7891 2.61719 13.7891C2.77344 13.9453 2.77344 13.9453 2.79557 14.0234C2.79529 14.1659 2.7882 14.2375 2.70264 14.3555C2.5694 14.4182 2.50031 14.4203 2.3555 14.4177C2.31675 14.4172 2.27799 14.4167 2.23806 14.4161C2.1937 14.4151 2.1937 14.4151 2.14844 14.4141C2.14888 14.4498 2.14931 14.4854 2.14976 14.5222C2.15367 14.859 2.15665 15.1958 2.15856 15.5326C2.15958 15.7057 2.16096 15.8789 2.16318 16.052C2.1653 16.2192 2.16647 16.3863 2.16697 16.5535C2.16733 16.6172 2.16804 16.6809 2.16909 16.7446C2.17052 16.834 2.17071 16.9233 2.17062 17.0127C2.17127 17.089 2.17127 17.089 2.17193 17.1668C2.14102 17.3483 2.08199 17.4098 1.95313 17.5391C1.79313 17.6327 1.62894 17.6292 1.44791 17.6289C1.4184 17.6291 1.38888 17.6293 1.35848 17.6294C1.29626 17.6297 1.23405 17.6297 1.17183 17.6295C1.0771 17.6294 0.982413 17.6303 0.887686 17.6313C0.827032 17.6314 0.766378 17.6314 0.705725 17.6314C0.6636 17.6319 0.6636 17.6319 0.620624 17.6325C0.436344 17.6308 0.310817 17.6007 0.156256 17.5C0.0124513 17.3515 -0.0195499 17.2584 -0.0197661 17.0531C-0.0201977 17.002 -0.0206292 16.9509 -0.0210739 16.8982C-0.020763 16.8415 -0.0204374 16.7848 -0.0200984 16.7281C-0.0203064 16.6679 -0.0205823 16.6076 -0.0209205 16.5474C-0.0216497 16.3817 -0.0214014 16.216 -0.0209928 16.0503C-0.0207201 15.8717 -0.0213442 15.693 -0.021852 15.5144C-0.0226983 15.1644 -0.0226921 14.8144 -0.0223744 14.4644C-0.0221285 14.1799 -0.0221725 13.8955 -0.022424 13.6111C-0.0224593 13.5706 -0.0224946 13.5302 -0.0225309 13.4885C-0.0226032 13.4063 -0.0226758 13.3241 -0.022749 13.242C-0.023397 12.471 -0.0230558 11.7001 -0.0223981 10.9292C-0.021824 10.2236 -0.0223954 9.51797 -0.023522 8.81238C-0.0246696 8.08819 -0.025099 7.36401 -0.0247258 6.63982C-0.0246859 6.55794 -0.0246469 6.47605 -0.0246092 6.39416C-0.0245905 6.35387 -0.024572 6.31358 -0.0245528 6.27207C-0.0244682 5.98795 -0.0248516 5.70384 -0.0254205 5.41972C-0.0261041 5.07351 -0.0261019 4.7273 -0.0252116 4.38109C-0.0247755 4.2044 -0.0246546 4.02772 -0.0253795 3.85103C-0.0260345 3.68932 -0.02579 3.52764 -0.0248242 3.36593C-0.0246329 3.30739 -0.0247723 3.24885 -0.025273 3.19031C-0.0291798 2.69813 -0.0291798 2.69813 0.0933399 2.54509C0.460091 2.24244 1.06371 2.34363 1.46226 2.54898ZM0.585943 3.00781C0.585943 7.62265 0.585943 12.2375 0.585943 16.9922C0.908209 16.9922 1.23047 16.9922 1.56251 16.9922C1.56429 15.3162 1.56567 13.6402 1.5665 11.9641C1.56659 11.7663 1.56669 11.5684 1.5668 11.3705C1.56682 11.3311 1.56684 11.2917 1.56686 11.2511C1.5672 10.6133 1.56782 9.97549 1.56853 9.33766C1.56926 8.68318 1.5697 8.0287 1.56986 7.37421C1.56996 6.97037 1.5703 6.56653 1.57094 6.16269C1.57135 5.88575 1.57147 5.60882 1.57137 5.33188C1.57132 5.17211 1.5714 5.01234 1.57182 4.85257C1.5722 4.70617 1.57222 4.55979 1.57195 4.4134C1.5719 4.3356 1.57224 4.2578 1.57259 4.18001C1.57457 3.65902 1.57457 3.65902 1.32157 3.22296C1.08253 3.02622 0.897579 3.00781 0.585943 3.00781ZM2.18751 7.69531C2.18751 7.85 2.18751 8.00469 2.18751 8.16406C2.25196 8.13828 2.31641 8.1125 2.38282 8.08594C2.35526 7.94262 2.29386 7.82404 2.22657 7.69531C2.21368 7.69531 2.20079 7.69531 2.18751 7.69531ZM2.2876 8.8916C2.19079 9.03875 2.1827 9.15073 2.18307 9.32284C2.18308 9.36883 2.18308 9.41481 2.18309 9.46219C2.18329 9.51051 2.18349 9.55883 2.18369 9.60861C2.18373 9.65303 2.18377 9.69745 2.18381 9.74322C2.18401 9.90938 2.18456 10.0755 2.18506 10.2417C2.18587 10.6131 2.18668 10.9845 2.18751 11.3672C3.16719 11.3672 4.14688 11.3672 5.15626 11.3672C5.16445 10.6538 5.16445 10.6538 5.17141 9.94036C5.17267 9.85012 5.17398 9.75988 5.17533 9.66964C5.17569 9.60083 5.17569 9.60083 5.17607 9.53062C5.18185 9.19565 5.24618 8.90992 5.35157 8.59375C5.01064 8.58921 4.66972 8.58575 4.32876 8.58363C4.17042 8.58261 4.0121 8.58123 3.85377 8.57901C3.70078 8.57688 3.54782 8.57572 3.39483 8.57522C3.33664 8.57486 3.27846 8.57416 3.22029 8.5731C2.82547 8.5662 2.56418 8.59375 2.2876 8.8916ZM6.02234 8.77395C6.00402 8.79586 5.98569 8.81776 5.9668 8.84033C5.94807 8.86193 5.92934 8.88353 5.91004 8.90579C5.74854 9.15631 5.7711 9.42466 5.77363 9.71161C5.77374 9.75896 5.77385 9.80632 5.77396 9.85511C5.7744 10.0059 5.77538 10.1568 5.77637 10.3076C5.77676 10.4101 5.77712 10.5125 5.77744 10.6149C5.77823 10.8657 5.77976 11.1164 5.78126 11.3672C6.09063 11.3672 6.40001 11.3672 6.71876 11.3672C6.71912 11.2998 6.71949 11.2325 6.71986 11.1631C6.72126 10.9387 6.72336 10.7143 6.72594 10.49C6.72747 10.3542 6.72873 10.2184 6.72934 10.0825C6.73005 9.92581 6.73201 9.76913 6.73401 9.61242C6.73409 9.54044 6.73409 9.54044 6.73416 9.46699C6.73945 9.15033 6.79625 8.88775 6.91407 8.59375C6.82127 8.59056 6.72858 8.58825 6.63575 8.58642C6.60977 8.58544 6.58378 8.58446 6.55701 8.58345C6.33821 8.58023 6.18679 8.62884 6.02234 8.77395ZM18.6812 10.5276C18.383 10.8381 18.4265 11.2714 18.4286 11.6751C18.4287 11.7333 18.4286 11.7914 18.4286 11.8496C18.4286 12.0066 18.429 12.1635 18.4296 12.3205C18.4301 12.4848 18.4301 12.6492 18.4302 12.8136C18.4305 13.1244 18.4311 13.4353 18.4319 13.7461C18.4328 14.1002 18.4332 14.4543 18.4336 14.8083C18.4344 15.5363 18.4358 16.2642 18.4375 16.9922C18.7598 16.9922 19.082 16.9922 19.4141 16.9922C19.4141 14.7879 19.4141 12.5836 19.4141 10.3125C19.0892 10.3125 18.9183 10.3247 18.6812 10.5276Z" fill="#00567A"/>
</g>
<defs>
<clipPath id="clip0_325_75">
<rect width="20" height="20" fill="white"/>
</clipPath>
</defs>
</svg>
