<svg width="20" height="20" viewBox="0 0 20 20" fill="none" xmlns="http://www.w3.org/2000/svg">
<g clip-path="url(#clip0_325_83)">
<path d="M5.31675 4.41361C5.37123 4.41969 5.37123 4.41969 5.42682 4.4259C5.50298 4.4345 5.57914 4.4432 5.65529 4.45201C5.77163 4.46535 5.88804 4.47798 6.00446 4.49059C6.07878 4.49906 6.15309 4.50758 6.22739 4.51615C6.27934 4.52165 6.27934 4.52165 6.33233 4.52726C6.5126 4.54891 6.64964 4.57219 6.79685 4.6875C6.85797 4.80975 6.86314 4.94574 6.83592 5.07813C6.75642 5.18406 6.71175 5.22904 6.57972 5.25101C6.54261 5.24955 6.5055 5.24809 6.46726 5.24659C6.43106 5.24563 6.39485 5.24467 6.35755 5.24369C6.13925 5.22983 5.9212 5.21209 5.7031 5.19532C7.10818 6.60039 8.51326 8.00547 9.96092 9.45313C10.1076 9.37978 10.181 9.32083 10.2946 9.20693C10.33 9.17166 10.3654 9.13638 10.4019 9.10003C10.4408 9.06084 10.4797 9.02165 10.5186 8.98245C10.5598 8.94125 10.601 8.90006 10.6422 8.85888C10.754 8.74712 10.8655 8.63512 10.977 8.52308C11.0936 8.40601 11.2104 8.28915 11.3272 8.17227C11.5483 7.95094 11.7692 7.72942 11.99 7.50782C12.2414 7.25553 12.493 7.00347 12.7447 6.75142C13.2623 6.23297 13.7797 5.71423 14.2969 5.19532C14.2619 5.19803 14.2269 5.20074 14.1909 5.20353C14.1222 5.20885 14.1222 5.20885 14.0521 5.21427C13.984 5.21954 13.984 5.21954 13.9144 5.22492C13.7872 5.23452 13.6603 5.24321 13.5327 5.24659C13.477 5.24878 13.477 5.24878 13.4202 5.25101C13.2883 5.22906 13.244 5.18351 13.164 5.07813C13.1356 4.97111 13.1414 4.87375 13.164 4.76563C13.2801 4.61481 13.3641 4.57532 13.5517 4.54795C13.6182 4.53973 13.6847 4.53168 13.7512 4.52378C13.7866 4.5195 13.822 4.51522 13.8584 4.51081C13.9335 4.50177 14.0087 4.49281 14.0838 4.48392C14.1977 4.4704 14.3115 4.45648 14.4253 4.44252C14.4985 4.43378 14.5716 4.42505 14.6448 4.41635C14.6952 4.41013 14.6952 4.41013 14.7466 4.40378C15.359 4.33262 15.359 4.33262 15.5517 4.44825C15.7058 4.70506 15.6202 5.0632 15.5864 5.35111C15.5803 5.40421 15.5803 5.40421 15.5741 5.45838C15.5655 5.53248 15.5568 5.60656 15.548 5.68063C15.5346 5.7938 15.522 5.90703 15.5094 6.02028C15.5009 6.09264 15.4924 6.16499 15.4838 6.23734C15.4802 6.27099 15.4765 6.30465 15.4727 6.33932C15.4507 6.51721 15.4256 6.65124 15.3125 6.79688C15.1902 6.858 15.0542 6.86317 14.9219 6.83594C14.8159 6.75644 14.7709 6.71177 14.749 6.57975C14.7504 6.54263 14.7519 6.50552 14.7534 6.46729C14.7544 6.43108 14.7553 6.39488 14.7563 6.35758C14.7702 6.13927 14.7879 5.92123 14.8047 5.70313C13.3996 7.10821 11.9945 8.51328 10.5469 9.96094C10.6202 10.1076 10.6792 10.181 10.793 10.2947C10.8283 10.33 10.8636 10.3654 10.8999 10.4019C10.9391 10.4408 10.9783 10.4797 11.0175 10.5186C11.0587 10.5598 11.0999 10.601 11.1411 10.6422C11.2529 10.754 11.3649 10.8655 11.4769 10.977C11.594 11.0936 11.7108 11.2104 11.8277 11.3272C12.049 11.5483 12.2706 11.7692 12.4922 11.99C12.7445 12.2414 12.9965 12.4931 13.2486 12.7447C13.767 13.2623 14.2857 13.7797 14.8047 14.2969C14.802 14.2619 14.7992 14.227 14.7964 14.191C14.7929 14.1451 14.7894 14.0993 14.7857 14.0521C14.7822 14.0067 14.7787 13.9613 14.7751 13.9145C14.7655 13.7872 14.7568 13.6603 14.7534 13.5327C14.7519 13.4956 14.7505 13.4585 14.749 13.4203C14.7709 13.2884 14.8165 13.244 14.9219 13.1641C15.0289 13.1356 15.1262 13.1414 15.2344 13.1641C15.3852 13.2801 15.4247 13.3641 15.452 13.5517C15.4603 13.6182 15.4683 13.6847 15.4762 13.7512C15.4805 13.7866 15.4848 13.822 15.4892 13.8584C15.4982 13.9336 15.5072 14.0087 15.5161 14.0838C15.5296 14.1977 15.5435 14.3115 15.5575 14.4254C15.5662 14.4985 15.5749 14.5716 15.5836 14.6448C15.5878 14.6784 15.5919 14.712 15.5962 14.7467C15.6674 15.359 15.6674 15.359 15.5517 15.5518C15.2949 15.7058 14.9368 15.6202 14.6489 15.5864C14.5958 15.5803 14.5958 15.5803 14.5416 15.5741C14.4675 15.5655 14.3934 15.5568 14.3194 15.548C14.2062 15.5346 14.093 15.522 13.9797 15.5094C13.9073 15.5009 13.835 15.4924 13.7626 15.4839C13.729 15.4802 13.6953 15.4765 13.6607 15.4727C13.4828 15.4508 13.3487 15.4257 13.2031 15.3125C13.142 15.1903 13.1368 15.0543 13.164 14.9219C13.2435 14.8159 13.2882 14.771 13.4202 14.749C13.4573 14.7505 13.4945 14.7519 13.5327 14.7534C13.5689 14.7544 13.6051 14.7553 13.6424 14.7563C13.8607 14.7702 14.0788 14.7879 14.2969 14.8047C12.8918 13.3996 11.4867 11.9945 10.039 10.5469C9.89234 10.6202 9.81895 10.6792 9.70532 10.7931C9.66994 10.8284 9.63456 10.8636 9.5981 10.9C9.55919 10.9392 9.52028 10.9784 9.48137 11.0176C9.44018 11.0588 9.39898 11.1 9.35776 11.1411C9.24598 11.2529 9.13444 11.3649 9.02295 11.4769C8.90636 11.594 8.78955 11.7109 8.67277 11.8277C8.45168 12.0491 8.23079 12.2706 8.00998 12.4922C7.75856 12.7445 7.50693 12.9965 7.25528 13.2486C6.73764 13.767 6.22028 14.2858 5.7031 14.8047C5.73806 14.802 5.77302 14.7993 5.80903 14.7965C5.85484 14.7929 5.90065 14.7894 5.94784 14.7857C5.99327 14.7822 6.0387 14.7787 6.08551 14.7751C6.21281 14.7655 6.33964 14.7568 6.46726 14.7534C6.50437 14.752 6.54148 14.7505 6.57972 14.749C6.71161 14.7709 6.756 14.8165 6.83592 14.9219C6.86434 15.0289 6.85856 15.1263 6.83592 15.2344C6.7199 15.3852 6.63587 15.4247 6.44827 15.4521C6.38178 15.4603 6.31528 15.4683 6.24876 15.4762C6.21338 15.4805 6.178 15.4848 6.14155 15.4892C6.06643 15.4982 5.99129 15.5072 5.91615 15.5161C5.80228 15.5296 5.68845 15.5435 5.57462 15.5575C5.50149 15.5662 5.42835 15.575 5.3552 15.5837C5.32158 15.5878 5.28795 15.592 5.25331 15.5962C4.64093 15.6674 4.64093 15.6674 4.44822 15.5518C4.29413 15.2949 4.37978 14.9368 4.41358 14.6489C4.41967 14.5958 4.41967 14.5958 4.42588 14.5416C4.43446 14.4675 4.44317 14.3934 4.45199 14.3194C4.46535 14.2062 4.47797 14.093 4.49056 13.9797C4.49904 13.9074 4.50756 13.835 4.51612 13.7627C4.51979 13.729 4.52346 13.6954 4.52723 13.6607C4.54922 13.4828 4.57431 13.3488 4.68748 13.2031C4.80972 13.142 4.94571 13.1368 5.0781 13.1641C5.18404 13.2436 5.22901 13.2882 5.25098 13.4203C5.24952 13.4574 5.24806 13.4945 5.24656 13.5327C5.2456 13.5689 5.24465 13.6051 5.24366 13.6424C5.2298 13.8607 5.21207 14.0788 5.19529 14.2969C6.60037 12.8918 8.00545 11.4867 9.4531 10.0391C9.37976 9.89237 9.3208 9.81898 9.20691 9.70535C9.17163 9.66997 9.13635 9.63458 9.10001 9.59813C9.06082 9.55921 9.02162 9.5203 8.98243 9.4814C8.94122 9.44021 8.90003 9.39901 8.85886 9.35779C8.7471 9.24601 8.6351 9.13447 8.52306 9.02297C8.40598 8.90639 8.28913 8.78958 8.17225 8.67279C7.95092 8.4517 7.72939 8.23082 7.50779 8.01C7.25551 7.75859 7.00344 7.50696 6.7514 7.2553C6.23294 6.73766 5.71421 6.2203 5.19529 5.70313C5.19936 5.75556 5.19936 5.75556 5.20351 5.80906C5.20705 5.85487 5.21059 5.90067 5.21424 5.94787C5.21776 5.9933 5.22127 6.03873 5.2249 6.08554C5.2345 6.21283 5.24319 6.33967 5.24656 6.46729C5.24802 6.5044 5.24948 6.54151 5.25098 6.57975C5.22904 6.71164 5.18348 6.75603 5.0781 6.83594C4.97109 6.86437 4.87372 6.85859 4.7656 6.83594C4.61478 6.71992 4.5753 6.6359 4.54793 6.44829C4.5397 6.38181 4.53166 6.3153 4.52375 6.24878C4.51947 6.2134 4.51519 6.17803 4.51078 6.14158C4.50174 6.06645 4.49279 5.99132 4.4839 5.91618C4.47037 5.8023 4.45645 5.68848 4.4425 5.57465C4.43375 5.50151 4.42503 5.42837 4.41633 5.35523C4.41218 5.3216 4.40803 5.28798 4.40375 5.25333C4.33237 4.63904 4.33237 4.63904 4.45066 4.44825C4.69812 4.29674 5.03847 4.38194 5.31675 4.41361Z" fill="#00567A"/>
<path d="M17.2295 16.7074C17.257 16.7071 17.2845 16.7069 17.3129 16.7066C17.4037 16.7059 17.4945 16.7057 17.5853 16.7056C17.6485 16.7054 17.7117 16.7051 17.775 16.7048C17.9075 16.7044 18.04 16.7042 18.1725 16.7043C18.3421 16.7043 18.5117 16.7032 18.6813 16.7019C18.8119 16.701 18.9425 16.7008 19.0731 16.7009C19.1356 16.7008 19.1981 16.7004 19.2607 16.6998C19.3482 16.6991 19.4357 16.6993 19.5232 16.6998C19.5729 16.6997 19.6227 16.6995 19.6739 16.6994C19.8321 16.7228 19.8957 16.7537 20 16.875C20.0196 16.9792 20.0264 17.0587 20.0246 17.1628C20.0249 17.1915 20.0252 17.2202 20.0255 17.2498C20.0261 17.3446 20.0254 17.4394 20.0245 17.5342C20.0246 17.6001 20.0246 17.6661 20.0248 17.7321C20.0249 17.8703 20.0243 18.0084 20.0233 18.1466C20.0219 18.3237 20.0222 18.5007 20.0229 18.6778C20.0233 18.814 20.023 18.9502 20.0224 19.0863C20.0222 19.1516 20.0222 19.2169 20.0224 19.2822C20.0227 19.3735 20.0219 19.4647 20.0208 19.556C20.021 19.5829 20.0213 19.6099 20.0216 19.6376C20.0191 19.76 20.0055 19.8351 19.9385 19.9386C19.8119 20.0206 19.7021 20.0222 19.5559 20.0208C19.5272 20.0212 19.4985 20.0215 19.4689 20.0219C19.3741 20.0227 19.2793 20.0225 19.1845 20.0221C19.1186 20.0223 19.0526 20.0226 18.9866 20.0229C18.8485 20.0233 18.7103 20.0231 18.5721 20.0225C18.395 20.0218 18.218 20.0228 18.0409 20.0241C17.9047 20.025 17.7686 20.0249 17.6324 20.0246C17.5671 20.0246 17.5018 20.0249 17.4365 20.0254C17.3452 20.0261 17.254 20.0255 17.1627 20.0247C17.1358 20.0251 17.1088 20.0256 17.0811 20.026C16.9457 20.0234 16.8837 20.0075 16.78 19.9184C16.7039 19.7772 16.6994 19.6834 16.6997 19.5232C16.6996 19.4956 16.6994 19.468 16.6993 19.4396C16.699 19.3488 16.6998 19.2581 16.7007 19.1673C16.7008 19.104 16.7008 19.0408 16.7008 18.9775C16.7009 18.8451 16.7016 18.7126 16.7026 18.5802C16.704 18.4106 16.7043 18.2409 16.7042 18.0712C16.7042 17.9406 16.7046 17.81 16.7052 17.6795C16.7055 17.6169 16.7056 17.5543 16.7057 17.4918C16.7058 17.4044 16.7065 17.3169 16.7074 17.2295C16.7077 17.1798 16.708 17.1301 16.7083 17.0789C16.7182 16.959 16.7264 16.8931 16.7968 16.7969C16.9311 16.6986 17.0674 16.7084 17.2295 16.7074ZM17.3828 17.3828C17.3828 18.0402 17.3828 18.6977 17.3828 19.375C18.0402 19.375 18.6976 19.375 19.375 19.375C19.375 18.7176 19.375 18.0602 19.375 17.3828C18.7175 17.3828 18.0601 17.3828 17.3828 17.3828Z" fill="#00567A"/>
<path d="M0.476806 16.6998C0.504396 16.6996 0.531987 16.6995 0.560413 16.6993C0.651196 16.699 0.741929 16.6999 0.832708 16.7007C0.895987 16.7008 0.959266 16.7009 1.02255 16.7009C1.15498 16.701 1.28739 16.7016 1.41982 16.7027C1.58948 16.704 1.75913 16.7043 1.9288 16.7042C2.0594 16.7043 2.18999 16.7047 2.32058 16.7053C2.38314 16.7055 2.4457 16.7057 2.50826 16.7057C2.59569 16.7059 2.68309 16.7066 2.77051 16.7074C2.82023 16.7077 2.86995 16.708 2.92118 16.7083C3.04103 16.7183 3.10693 16.7264 3.20316 16.7969C3.30147 16.9312 3.29166 17.0675 3.29263 17.2295C3.2929 17.2571 3.29316 17.2846 3.29343 17.3129C3.29417 17.4037 3.29432 17.4945 3.29441 17.5853C3.29466 17.6485 3.29492 17.7118 3.2952 17.775C3.29566 17.9075 3.29581 18.04 3.29576 18.1725C3.29575 18.3421 3.29682 18.5117 3.29817 18.6813C3.29904 18.8119 3.29919 18.9425 3.29915 19.0731C3.29924 19.1357 3.29959 19.1982 3.30019 19.2607C3.30096 19.3482 3.30073 19.4357 3.30026 19.5232C3.30037 19.573 3.30049 19.6227 3.3006 19.674C3.27723 19.8322 3.24632 19.8957 3.12504 20C3.02086 20.0196 2.94132 20.0264 2.83725 20.0247C2.80853 20.0249 2.7798 20.0252 2.7502 20.0255C2.65539 20.0262 2.56066 20.0254 2.46586 20.0246C2.39989 20.0246 2.33393 20.0247 2.26797 20.0249C2.12978 20.025 1.99162 20.0244 1.85344 20.0233C1.67637 20.022 1.49933 20.0222 1.32225 20.023C1.18606 20.0234 1.04988 20.023 0.913691 20.0224C0.848405 20.0222 0.783117 20.0222 0.71783 20.0225C0.626552 20.0227 0.535337 20.0219 0.444066 20.0208C0.417114 20.0211 0.390161 20.0213 0.362391 20.0216C0.239993 20.0192 0.164903 20.0056 0.0614766 19.9386C-0.0206062 19.8119 -0.0221852 19.7022 -0.0208023 19.556C-0.0211388 19.5272 -0.0214754 19.4985 -0.0218221 19.4689C-0.0227077 19.3741 -0.022444 19.2794 -0.0220897 19.1846C-0.0222942 19.1186 -0.0225394 19.0526 -0.0228235 18.9867C-0.0232299 18.8485 -0.0230516 18.7103 -0.0224807 18.5722C-0.0218091 18.3951 -0.0227274 18.218 -0.0241014 18.041C-0.0249592 17.9048 -0.0249036 17.7686 -0.0245793 17.6324C-0.0245473 17.5671 -0.0248159 17.5018 -0.0253907 17.4365C-0.0260712 17.3453 -0.0255051 17.2541 -0.024617 17.1628C-0.0250737 17.1358 -0.0255304 17.1089 -0.026001 17.0811C-0.0233212 16.9457 -0.00748507 16.8837 0.0816414 16.7801C0.222826 16.7039 0.316615 16.6994 0.476806 16.6998ZM0.625036 17.3828C0.625036 18.0402 0.625036 18.6977 0.625036 19.375C1.28246 19.375 1.93988 19.375 2.61722 19.375C2.61722 18.7176 2.61722 18.0602 2.61722 17.3828C1.9598 17.3828 1.30238 17.3828 0.625036 17.3828Z" fill="#00567A"/>
<path d="M17.1628 -0.0246591C17.2059 -0.0250784 17.2059 -0.0250784 17.2498 -0.0255061C17.3446 -0.0261657 17.4394 -0.0254079 17.5342 -0.0245733C17.6001 -0.0246057 17.6661 -0.0247017 17.7321 -0.0248588C17.8703 -0.0249704 18.0084 -0.0243962 18.1466 -0.023324C18.3237 -0.0219926 18.5007 -0.0222277 18.6778 -0.0229592C18.814 -0.0233722 18.9502 -0.0230229 19.0863 -0.0224364C19.1516 -0.022234 19.2169 -0.0222528 19.2822 -0.0224967C19.3735 -0.0227098 19.4647 -0.0219137 19.556 -0.0208444C19.5829 -0.0210993 19.6099 -0.0213542 19.6376 -0.0216169C19.76 -0.0191803 19.8351 -0.00559091 19.9386 0.0614344C20.0206 0.188095 20.0222 0.297803 20.0208 0.444024C20.0213 0.487116 20.0213 0.487116 20.0219 0.531078C20.0227 0.625874 20.0225 0.720624 20.0221 0.815423C20.0223 0.881386 20.0226 0.947348 20.0229 1.01331C20.0233 1.15149 20.0231 1.28966 20.0225 1.42783C20.0218 1.60492 20.0228 1.78195 20.0241 1.95903C20.025 2.09522 20.0249 2.2314 20.0246 2.36759C20.0246 2.43288 20.0249 2.49816 20.0254 2.56345C20.0261 2.65473 20.0255 2.74593 20.0247 2.83721C20.0253 2.87764 20.0253 2.87764 20.026 2.91889C20.0234 3.05425 20.0075 3.11625 19.9184 3.21992C19.7772 3.29606 19.6834 3.30058 19.5232 3.30022C19.4956 3.30037 19.468 3.30052 19.4396 3.30067C19.3488 3.30096 19.2581 3.30013 19.1673 3.29925C19.104 3.29916 19.0408 3.29912 18.9775 3.29914C18.8451 3.29902 18.7126 3.29837 18.5802 3.29732C18.4106 3.29599 18.2409 3.2957 18.0712 3.29576C17.9406 3.29573 17.81 3.29531 17.6795 3.29474C17.6169 3.29449 17.5543 3.29434 17.4918 3.29428C17.4044 3.29411 17.3169 3.29343 17.2295 3.29259C17.1798 3.29229 17.1301 3.292 17.0789 3.29169C16.959 3.28173 16.8931 3.27357 16.7969 3.20312C16.6986 3.06883 16.7084 2.93252 16.7074 2.77046C16.7071 2.74294 16.7069 2.71542 16.7066 2.68706C16.7059 2.59627 16.7057 2.50549 16.7056 2.4147C16.7054 2.35146 16.7051 2.28821 16.7048 2.22497C16.7044 2.09248 16.7042 1.95999 16.7043 1.82749C16.7043 1.65786 16.7032 1.48826 16.7019 1.31864C16.701 1.18805 16.7008 1.05746 16.7009 0.926865C16.7008 0.864335 16.7004 0.801805 16.6998 0.739278C16.6991 0.651755 16.6993 0.564288 16.6998 0.476764C16.6997 0.427011 16.6995 0.377258 16.6994 0.325998C16.7423 0.0356821 16.8905 -0.0292738 17.1628 -0.0246591ZM17.3828 0.624993C17.3828 1.28242 17.3828 1.93984 17.3828 2.61718C18.0402 2.61718 18.6977 2.61718 19.375 2.61718C19.375 1.95976 19.375 1.30234 19.375 0.624993C18.7176 0.624993 18.0602 0.624993 17.3828 0.624993Z" fill="#00567A"/>
<path d="M0.444024 -0.0208328C0.472752 -0.0211693 0.50148 -0.0215059 0.531078 -0.0218526C0.625874 -0.0227382 0.720624 -0.0224745 0.815423 -0.0221202C0.881386 -0.0223247 0.947348 -0.0225699 1.01331 -0.022854C1.15149 -0.0232605 1.28966 -0.0230821 1.42783 -0.0225112C1.60492 -0.0218396 1.78195 -0.0227579 1.95903 -0.0241319C2.09522 -0.0249897 2.2314 -0.0249341 2.36759 -0.0246098C2.43288 -0.0245778 2.49816 -0.0248465 2.56345 -0.0254212C2.65473 -0.0261017 2.74593 -0.0255356 2.83721 -0.0246475C2.86417 -0.0251042 2.89112 -0.0255609 2.91889 -0.0260315C3.05425 -0.0233517 3.11625 -0.00751559 3.21992 0.0816109C3.29606 0.222796 3.30058 0.316584 3.30022 0.476775C3.30037 0.504366 3.30052 0.531956 3.30067 0.560383C3.30096 0.651165 3.30013 0.741899 3.29925 0.832677C3.29916 0.895956 3.29912 0.959236 3.29914 1.02251C3.29902 1.15495 3.29837 1.28736 3.29732 1.41979C3.29599 1.58945 3.2957 1.7591 3.29576 1.92877C3.29573 2.05937 3.29531 2.18996 3.29474 2.32055C3.29449 2.38311 3.29434 2.44567 3.29428 2.50823C3.29411 2.59565 3.29343 2.68306 3.29259 2.77048C3.29215 2.84506 3.29215 2.84506 3.29169 2.92115C3.28173 3.041 3.27357 3.1069 3.20312 3.20313C3.06883 3.30144 2.93252 3.29163 2.77046 3.2926C2.72918 3.293 2.72918 3.293 2.68706 3.2934C2.59627 3.29414 2.50549 3.29429 2.4147 3.29438C2.35146 3.29463 2.28821 3.29489 2.22497 3.29517C2.09248 3.29563 1.95999 3.29578 1.82749 3.29573C1.65786 3.29572 1.48826 3.29679 1.31864 3.29814C1.18805 3.29901 1.05746 3.29916 0.926865 3.29912C0.864335 3.29921 0.801805 3.29956 0.739278 3.30016C0.651755 3.30093 0.564288 3.3007 0.476764 3.30023C0.427011 3.30034 0.377258 3.30046 0.325998 3.30057C0.167833 3.27719 0.104261 3.24629 -6.63102e-06 3.12501C-0.019603 3.02083 -0.0264226 2.94129 -0.0246591 2.83722C-0.0249386 2.8085 -0.0252181 2.77977 -0.0255061 2.75017C-0.0261657 2.65536 -0.0254079 2.56063 -0.0245733 2.46583C-0.0246057 2.39986 -0.0247017 2.3339 -0.0248588 2.26794C-0.0249704 2.12975 -0.0243962 1.99159 -0.023324 1.85341C-0.0219926 1.67634 -0.0222277 1.4993 -0.0229592 1.32222C-0.0233722 1.18603 -0.0230229 1.04985 -0.0224364 0.913661C-0.022234 0.848374 -0.0222528 0.783086 -0.0224967 0.7178C-0.0227098 0.626522 -0.0219137 0.535307 -0.0208444 0.444036C-0.0210993 0.417083 -0.0213542 0.39013 -0.0216169 0.362361C-0.0191803 0.239962 -0.00559091 0.164872 0.0614344 0.0614461C0.188095 -0.0206367 0.297803 -0.0222157 0.444024 -0.0208328ZM0.624993 0.625005C0.624993 1.28243 0.624993 1.93985 0.624993 2.61719C1.28242 2.61719 1.93984 2.61719 2.61718 2.61719C2.61718 1.95977 2.61718 1.30235 2.61718 0.625005C1.95976 0.625005 1.30234 0.625005 0.624993 0.625005Z" fill="#00567A"/>
<path d="M15.0154 18.0332C15.0912 18.0326 15.167 18.0315 15.2428 18.03C15.3522 18.0279 15.4615 18.027 15.5708 18.0264C15.6215 18.0251 15.6215 18.0251 15.6732 18.0237C15.8456 18.0244 15.9157 18.0302 16.0567 18.1385C16.1328 18.2422 16.1328 18.2422 16.1548 18.3594C16.128 18.5023 16.0771 18.5684 15.9766 18.6719C15.8482 18.7361 15.7056 18.719 15.5644 18.7202C15.5312 18.7206 15.4979 18.7209 15.4637 18.7212C15.3933 18.7217 15.3228 18.7222 15.2524 18.7225C15.1449 18.7231 15.0374 18.7249 14.9299 18.7266C14.8615 18.727 14.793 18.7273 14.7246 18.7276C14.6925 18.7283 14.6604 18.7289 14.6274 18.7296C14.4728 18.7291 14.3932 18.7219 14.2579 18.6402C14.1496 18.5218 14.1406 18.4401 14.1406 18.2813C14.298 17.9366 14.6868 18.0353 15.0154 18.0332Z" fill="#00567A"/>
<path d="M4.42642 18.0223C4.47877 18.0222 4.47877 18.0222 4.53218 18.022C4.60576 18.0221 4.67934 18.0226 4.75291 18.0236C4.8655 18.0249 4.97797 18.0244 5.09056 18.0236C5.16215 18.0239 5.23374 18.0242 5.30533 18.0247C5.33894 18.0246 5.37255 18.0244 5.40719 18.0242C5.63903 18.0287 5.63903 18.0287 5.76217 18.118C5.84552 18.24 5.85938 18.3294 5.85938 18.4766C5.79037 18.586 5.741 18.6529 5.625 18.7109C5.51335 18.7162 5.4027 18.7192 5.29099 18.7202C5.25774 18.7206 5.2245 18.7209 5.19026 18.7212C5.11982 18.7217 5.04939 18.7222 4.97895 18.7225C4.87143 18.7231 4.76396 18.7248 4.65645 18.7266C4.58801 18.727 4.51958 18.7273 4.45114 18.7276C4.41907 18.7282 4.387 18.7289 4.35396 18.7296C4.19692 18.729 4.12037 18.7229 3.9845 18.6367C3.89167 18.5394 3.8703 18.4999 3.85254 18.3667C3.86719 18.2422 3.86719 18.2422 3.94301 18.1383C4.10643 18.0133 4.226 18.0192 4.42642 18.0223Z" fill="#00567A"/>
<path d="M18.5547 14.1797C18.6745 14.2891 18.7203 14.3752 18.7311 14.5339C18.7322 14.5961 18.7323 14.6583 18.7317 14.7205C18.7318 14.7535 18.732 14.7866 18.7321 14.8207C18.7322 14.8904 18.7319 14.9602 18.7313 15.0299C18.7305 15.1364 18.7313 15.2428 18.7323 15.3493C18.7322 15.4172 18.732 15.4851 18.7317 15.553C18.732 15.5847 18.7323 15.6164 18.7326 15.649C18.7301 15.8046 18.7221 15.8809 18.6364 16.0152C18.5393 16.1085 18.5 16.1297 18.3667 16.1475C18.2422 16.1328 18.2422 16.1328 18.1383 16.057C18.0133 15.8936 18.0192 15.774 18.0223 15.5736C18.0222 15.5387 18.0221 15.5038 18.022 15.4678C18.022 15.3942 18.0226 15.3207 18.0235 15.2471C18.0249 15.1345 18.0243 15.022 18.0236 14.9094C18.0239 14.8378 18.0242 14.7663 18.0247 14.6947C18.0245 14.6611 18.0243 14.6274 18.0241 14.5928C18.0287 14.3598 18.0287 14.3598 18.1215 14.2378C18.279 14.1256 18.3651 14.1339 18.5547 14.1797Z" fill="#00567A"/>
<path d="M1.7969 14.1797C1.89296 14.2444 1.945 14.2947 1.96791 14.4106C1.97455 14.5056 1.97583 14.5994 1.97528 14.6947C1.97564 14.747 1.97564 14.747 1.97601 14.8003C1.97629 14.874 1.97617 14.9476 1.97567 15.0213C1.97513 15.1338 1.97646 15.2462 1.97795 15.3587C1.97799 15.4303 1.97791 15.5019 1.97772 15.5736C1.97824 15.6071 1.97876 15.6406 1.97929 15.6752C1.97663 15.8465 1.96921 15.9167 1.86129 16.0565C1.75784 16.1328 1.75784 16.1328 1.64065 16.1548C1.49772 16.128 1.4316 16.0771 1.32815 15.9766C1.26396 15.8482 1.28104 15.7056 1.27978 15.5644C1.27947 15.5312 1.27915 15.4979 1.27883 15.4637C1.27829 15.3933 1.27787 15.3228 1.27756 15.2524C1.27689 15.1449 1.27517 15.0374 1.27345 14.9299C1.27305 14.8614 1.27272 14.793 1.27246 14.7246C1.27177 14.6925 1.27109 14.6604 1.27039 14.6274C1.27098 14.4704 1.27716 14.3938 1.36337 14.2579C1.5116 14.1164 1.59982 14.1355 1.7969 14.1797Z" fill="#00567A"/>
<path d="M18.3594 3.84521C18.5024 3.87201 18.5685 3.92294 18.6719 4.02344C18.7361 4.15183 18.719 4.29439 18.7203 4.43558C18.7206 4.46882 18.7209 4.50206 18.7213 4.53631C18.7218 4.60674 18.7222 4.67717 18.7225 4.74761C18.7232 4.85513 18.7249 4.96261 18.7266 5.07011C18.727 5.13855 18.7274 5.20699 18.7276 5.27542C18.7283 5.30749 18.729 5.33956 18.7297 5.3726C18.7291 5.52724 18.722 5.60681 18.6402 5.74206C18.5219 5.85041 18.4401 5.85938 18.2813 5.85938C18.1662 5.80681 18.1039 5.77791 18.0469 5.66406C18.0358 5.43769 18.0347 5.21126 18.0333 4.98464C18.0326 4.90882 18.0315 4.83301 18.0301 4.7572C18.0279 4.64785 18.0271 4.53854 18.0265 4.42917C18.0256 4.39539 18.0247 4.36161 18.0238 4.32681C18.0244 4.1544 18.0302 4.08427 18.1385 3.9433C18.2422 3.86719 18.2422 3.86719 18.3594 3.84521Z" fill="#00567A"/>
<path d="M1.75784 3.86718C1.86488 3.9453 1.9406 4.00788 1.9712 4.14099C1.97836 4.23667 1.9792 4.33048 1.97772 4.42642C1.97781 4.46132 1.97791 4.49622 1.978 4.53218C1.97797 4.60576 1.97744 4.67934 1.97647 4.75291C1.97513 4.8655 1.97566 4.97797 1.97642 5.09056C1.97615 5.16215 1.97578 5.23374 1.97528 5.30532C1.97547 5.33894 1.97567 5.37255 1.97587 5.40718C1.9713 5.63902 1.9713 5.63902 1.88204 5.76216C1.76 5.84551 1.67061 5.85937 1.52347 5.85937C1.41402 5.79037 1.34709 5.74099 1.28909 5.625C1.28379 5.51334 1.28078 5.40269 1.27978 5.29098C1.27947 5.25774 1.27915 5.2245 1.27883 5.19025C1.27829 5.11982 1.27787 5.04938 1.27756 4.97895C1.27689 4.87143 1.27517 4.76395 1.27345 4.65644C1.27305 4.58801 1.27272 4.51957 1.27246 4.45114C1.27177 4.41907 1.27109 4.387 1.27039 4.35396C1.27098 4.19692 1.27716 4.12037 1.36337 3.9845C1.4934 3.86036 1.57935 3.84618 1.75784 3.86718Z" fill="#00567A"/>
<path d="M14.709 1.27975C14.7423 1.27944 14.7755 1.27912 14.8097 1.2788C14.8802 1.27826 14.9506 1.27784 15.021 1.27753C15.1286 1.27686 15.236 1.27514 15.3436 1.27342C15.412 1.27302 15.4804 1.27269 15.5489 1.27243C15.5809 1.27174 15.613 1.27106 15.646 1.27036C15.8031 1.27095 15.8796 1.27712 16.0155 1.36334C16.1083 1.46058 16.1297 1.50012 16.1475 1.6333C16.1328 1.75781 16.1328 1.75781 16.057 1.86171C15.8936 1.98673 15.774 1.98078 15.5736 1.97769C15.5212 1.97783 15.5212 1.97783 15.4678 1.97797C15.3942 1.97794 15.3207 1.97741 15.2471 1.97644C15.1345 1.9751 15.022 1.97563 14.9094 1.97639C14.8378 1.97612 14.7663 1.97574 14.6947 1.97525C14.6611 1.97544 14.6274 1.97563 14.5928 1.97583C14.361 1.97127 14.361 1.97127 14.2378 1.88201C14.1545 1.75997 14.1406 1.67058 14.1406 1.52343C14.2964 1.27635 14.4356 1.28219 14.709 1.27975Z" fill="#00567A"/>
<path d="M4.43558 1.27975C4.46882 1.27944 4.50206 1.27912 4.53631 1.2788C4.60674 1.27826 4.67717 1.27784 4.74761 1.27753C4.85513 1.27686 4.96261 1.27514 5.07011 1.27342C5.13855 1.27302 5.20699 1.27269 5.27542 1.27243C5.30749 1.27174 5.33956 1.27106 5.3726 1.27036C5.52724 1.27094 5.60681 1.27806 5.74206 1.35983C5.85041 1.47818 5.85938 1.55995 5.85938 1.71875C5.80681 1.83389 5.77791 1.8962 5.66406 1.95312C5.43769 1.96428 5.21126 1.96538 4.98464 1.9668C4.90882 1.96744 4.83301 1.96851 4.7572 1.97C4.64785 1.97214 4.53854 1.973 4.42917 1.97357C4.39539 1.97445 4.36161 1.97534 4.32681 1.97625C4.1544 1.97565 4.08427 1.96985 3.9433 1.86151C3.86719 1.75781 3.86719 1.75781 3.84521 1.64062C3.87201 1.49769 3.92294 1.43157 4.02344 1.32812C4.15183 1.26393 4.29439 1.28101 4.43558 1.27975Z" fill="#00567A"/>
<path d="M12.1089 18.0324C12.1439 18.032 12.1789 18.0317 12.2149 18.0313C12.289 18.0307 12.3631 18.0304 12.4372 18.0302C12.5504 18.0298 12.6635 18.0279 12.7767 18.0259C12.8487 18.0255 12.9207 18.0252 12.9927 18.025C13.0434 18.0239 13.0434 18.0239 13.0951 18.0227C13.2664 18.024 13.3379 18.0306 13.4786 18.1372C13.5547 18.2422 13.5547 18.2422 13.5767 18.3813C13.5516 18.5344 13.5197 18.5791 13.3984 18.6719C13.2721 18.735 13.1337 18.7181 12.9948 18.7189C12.9463 18.7192 12.9463 18.7192 12.8967 18.7195C12.8281 18.7199 12.7596 18.7202 12.691 18.7203C12.5863 18.7207 12.4816 18.7219 12.3769 18.7231C12.3103 18.7234 12.2436 18.7236 12.177 18.7237C12.1458 18.7242 12.1145 18.7247 12.0824 18.7252C11.9038 18.7245 11.784 18.7121 11.6406 18.5937C11.582 18.4619 11.582 18.4619 11.5625 18.3203C11.6858 18.043 11.8269 18.0341 12.1089 18.0324Z" fill="#00567A"/>
<path d="M9.54832 18.0261C9.60205 18.0259 9.60205 18.0259 9.65687 18.0257C9.73252 18.0256 9.80817 18.0259 9.88382 18.0265C9.99958 18.0273 10.1152 18.0265 10.231 18.0255C10.3045 18.0256 10.3781 18.0258 10.4516 18.0261C10.4862 18.0258 10.5208 18.0255 10.5565 18.0252C10.7961 18.0288 10.7961 18.0288 10.9202 18.1214C11.01 18.2516 11.0028 18.3634 10.9765 18.5156C10.9085 18.642 10.88 18.665 10.7422 18.7109C10.6321 18.7157 10.523 18.7183 10.4129 18.7189C10.3644 18.7192 10.3644 18.7192 10.3149 18.7196C10.2466 18.7199 10.1782 18.7202 10.1099 18.7203C10.0055 18.7207 9.90121 18.7219 9.79688 18.7231C9.73041 18.7234 9.66393 18.7236 9.59745 18.7238C9.56636 18.7242 9.53526 18.7247 9.50323 18.7252C9.32418 18.7245 9.20817 18.7095 9.06248 18.5938C9.00136 18.4715 8.99619 18.3355 9.02341 18.2031C9.16074 18.0028 9.32646 18.0241 9.54832 18.0261Z" fill="#00567A"/>
<path d="M7.00452 18.0223C7.05687 18.0222 7.05687 18.0222 7.11028 18.022C7.18386 18.0221 7.25744 18.0226 7.33101 18.0236C7.4436 18.0249 7.55607 18.0244 7.66866 18.0236C7.74025 18.0239 7.81184 18.0243 7.88343 18.0247C7.91704 18.0246 7.95065 18.0244 7.98528 18.0242C8.2179 18.0287 8.2179 18.0287 8.34057 18.1204C8.40899 18.2183 8.43165 18.2791 8.43747 18.3984C8.40797 18.5223 8.3795 18.5778 8.27939 18.6572C8.12822 18.7276 7.99058 18.7278 7.82712 18.7265C7.77881 18.7267 7.77881 18.7267 7.72952 18.7268C7.66163 18.7269 7.59373 18.7267 7.52584 18.7262C7.42218 18.7256 7.31859 18.7262 7.21494 18.727C7.14882 18.7269 7.0827 18.7267 7.01657 18.7265C6.9703 18.7269 6.9703 18.7269 6.9231 18.7272C6.74436 18.7249 6.626 18.7058 6.48435 18.5937C6.42304 18.4711 6.43153 18.3774 6.44529 18.2422C6.60525 18.0204 6.75105 18.0184 7.00452 18.0223Z" fill="#00567A"/>
<path d="M18.5156 9.02344C18.642 9.09151 18.665 9.12 18.7109 9.25782C18.7157 9.3679 18.7183 9.47699 18.7189 9.5871C18.7191 9.61942 18.7193 9.65174 18.7195 9.68503C18.7199 9.7534 18.7202 9.82176 18.7203 9.89012C18.7207 9.99446 18.7219 10.0988 18.7231 10.2031C18.7234 10.2696 18.7236 10.3361 18.7237 10.4025C18.7242 10.4336 18.7247 10.4647 18.7252 10.4968C18.7245 10.6758 18.7095 10.7918 18.5937 10.9375C18.4715 10.9986 18.3355 11.0038 18.2031 10.9766C18.1081 10.9114 18.0543 10.8593 18.0321 10.7438C18.0261 10.6461 18.0252 10.5495 18.0261 10.4517C18.026 10.4158 18.0258 10.38 18.0257 10.3431C18.0255 10.2675 18.0258 10.1918 18.0265 10.1162C18.0273 10.0004 18.0265 9.88474 18.0255 9.76899C18.0256 9.69544 18.0258 9.62189 18.0261 9.54834C18.0258 9.51375 18.0255 9.47916 18.0251 9.44353C18.0288 9.20391 18.0288 9.20391 18.1214 9.07974C18.2516 8.99001 18.3634 8.99719 18.5156 9.02344Z" fill="#00567A"/>
<path d="M1.79687 9.02345C1.89187 9.08856 1.94563 9.14076 1.96785 9.25621C1.97385 9.35391 1.97477 9.45047 1.97387 9.54835C1.97402 9.58417 1.97417 9.61999 1.97433 9.6569C1.97443 9.73255 1.97415 9.8082 1.97349 9.88385C1.97266 9.99961 1.97348 10.1153 1.97448 10.231C1.97438 10.3046 1.97418 10.3781 1.97387 10.4517C1.97419 10.4863 1.97451 10.5208 1.97483 10.5565C1.97118 10.7961 1.97118 10.7961 1.87858 10.9203C1.74835 11.01 1.63659 11.0028 1.48437 10.9766C1.35796 10.9085 1.335 10.88 1.28906 10.7422C1.28433 10.6321 1.28171 10.523 1.28112 10.4129C1.2809 10.3806 1.28068 10.3483 1.28045 10.315C1.28008 10.2466 1.27983 10.1783 1.27968 10.1099C1.2793 10.0056 1.27808 9.90124 1.27685 9.79691C1.2766 9.73044 1.27639 9.66396 1.27624 9.59748C1.27576 9.56639 1.27528 9.53529 1.27478 9.50326C1.2755 9.32421 1.29047 9.2082 1.40625 9.06251C1.52849 9.00139 1.66448 8.99622 1.79687 9.02345Z" fill="#00567A"/>
<path d="M12.1729 1.2735C12.2212 1.27333 12.2212 1.27333 12.2705 1.27316C12.3383 1.27308 12.4062 1.2733 12.4741 1.27379C12.5778 1.27441 12.6814 1.27379 12.785 1.27304C12.8512 1.27312 12.9173 1.27327 12.9834 1.2735C13.0297 1.27314 13.0297 1.27314 13.0769 1.27278C13.2556 1.27505 13.374 1.29424 13.5156 1.40625C13.5769 1.52886 13.5684 1.6226 13.5547 1.75781C13.4767 1.86589 13.4147 1.94046 13.2809 1.9711C13.1852 1.97835 13.0914 1.97918 12.9955 1.97769C12.9431 1.97783 12.9431 1.97783 12.8897 1.97798C12.8161 1.97794 12.7425 1.97742 12.669 1.97644C12.5564 1.9751 12.4439 1.97564 12.3313 1.9764C12.2597 1.97613 12.1881 1.97575 12.1165 1.97525C12.0829 1.97545 12.0493 1.97564 12.0147 1.97584C11.7821 1.97126 11.7821 1.97126 11.6594 1.87957C11.591 1.78175 11.5683 1.72091 11.5625 1.60156C11.592 1.47765 11.6205 1.42224 11.7206 1.34283C11.8718 1.27237 12.0094 1.27224 12.1729 1.2735Z" fill="#00567A"/>
<path d="M9.58704 1.28112C9.63552 1.28079 9.63552 1.28079 9.68497 1.28045C9.75334 1.28008 9.8217 1.27983 9.89006 1.27968C9.9944 1.2793 10.0987 1.27808 10.203 1.27685C10.2695 1.2766 10.336 1.27639 10.4025 1.27624C10.4336 1.27576 10.4647 1.27528 10.4967 1.27478C10.6757 1.2755 10.7918 1.29047 10.9374 1.40625C10.9986 1.52849 11.0037 1.66448 10.9765 1.79687C10.9114 1.89187 10.8592 1.94563 10.7437 1.96785C10.646 1.97385 10.5495 1.97477 10.4516 1.97387C10.4158 1.97402 10.38 1.97417 10.343 1.97433C10.2674 1.97443 10.1917 1.97415 10.1161 1.97349C10.0003 1.97266 9.88468 1.97348 9.76892 1.97448C9.69538 1.97438 9.62183 1.97418 9.54828 1.97387C9.51369 1.97419 9.4791 1.97451 9.44346 1.97483C9.20385 1.97118 9.20385 1.97118 9.07968 1.87858C8.98995 1.74835 8.99712 1.63659 9.02338 1.48437C9.14817 1.25262 9.35055 1.28238 9.58704 1.28112Z" fill="#00567A"/>
<path d="M7.00516 1.28112C7.03753 1.2809 7.0699 1.28068 7.10326 1.28045C7.17185 1.28008 7.24045 1.27983 7.30905 1.27968C7.41373 1.2793 7.51838 1.27809 7.62306 1.27685C7.68972 1.2766 7.75637 1.27639 7.82303 1.27624C7.85424 1.27576 7.88546 1.27528 7.91762 1.27478C8.09615 1.27549 8.21599 1.2879 8.35938 1.40625C8.41797 1.53808 8.41797 1.53808 8.4375 1.67968C8.38585 1.79591 8.33167 1.86363 8.24219 1.95312C8.12396 1.96238 8.00944 1.96689 7.89108 1.96762C7.85611 1.96797 7.82113 1.96832 7.7851 1.96869C7.71099 1.96925 7.63687 1.9696 7.56276 1.96974C7.44957 1.97021 7.33646 1.97213 7.22328 1.9741C7.15129 1.97447 7.07929 1.97475 7.00729 1.97494C6.97351 1.9757 6.93974 1.97647 6.90493 1.97725C6.73361 1.97597 6.66206 1.96937 6.52143 1.8628C6.44531 1.75781 6.44531 1.75781 6.42334 1.61865C6.44839 1.46558 6.48027 1.42087 6.60156 1.32812C6.72789 1.26496 6.86633 1.28186 7.00516 1.28112Z" fill="#00567A"/>
<path d="M18.5938 11.6406C18.7279 11.8061 18.7281 11.9685 18.7265 12.1729C18.7266 12.2051 18.7268 12.2373 18.7269 12.2704C18.727 12.3383 18.7267 12.4062 18.7263 12.4741C18.7256 12.5778 18.7262 12.6814 18.727 12.785C18.7269 12.8512 18.7268 12.9173 18.7265 12.9834C18.7269 13.0297 18.7269 13.0297 18.7273 13.0769C18.725 13.2556 18.7058 13.374 18.5938 13.5156C18.4712 13.5769 18.3774 13.5684 18.2422 13.5547C18.1341 13.4767 18.0596 13.4147 18.0289 13.2809C18.0217 13.1852 18.0209 13.0914 18.0223 12.9955C18.0222 12.9606 18.0222 12.9256 18.0221 12.8897C18.0221 12.8161 18.0226 12.7425 18.0236 12.669C18.0249 12.5564 18.0244 12.4439 18.0236 12.3313C18.0239 12.2597 18.0243 12.1881 18.0248 12.1165C18.0246 12.0829 18.0244 12.0493 18.0242 12.0147C18.0288 11.7816 18.0288 11.7816 18.1218 11.6594C18.293 11.5376 18.4032 11.5514 18.5938 11.6406Z" fill="#00567A"/>
<path d="M1.83593 11.6406C1.91165 11.7015 1.9484 11.7353 1.96853 11.8314C1.96886 11.859 1.96919 11.8866 1.96952 11.915C1.97015 11.9465 1.97077 11.9779 1.97141 12.0103C1.97142 12.061 1.97142 12.061 1.97143 12.1127C1.97188 12.1651 1.97188 12.1651 1.97233 12.2185C1.97276 12.2924 1.97287 12.3663 1.97269 12.4402C1.97265 12.553 1.97428 12.6658 1.97601 12.7786C1.97621 12.8504 1.97632 12.9223 1.97632 12.9941C1.97728 13.0446 1.97728 13.0446 1.97826 13.0961C1.97629 13.2669 1.9691 13.3383 1.86271 13.4785C1.75781 13.5547 1.75781 13.5547 1.61865 13.5767C1.46558 13.5516 1.42087 13.5197 1.32812 13.3984C1.26496 13.2721 1.28186 13.1337 1.28112 12.9948C1.2809 12.9625 1.28068 12.9301 1.28045 12.8967C1.28008 12.8281 1.27983 12.7596 1.27968 12.691C1.2793 12.5863 1.27809 12.4816 1.27685 12.3769C1.2766 12.3103 1.27639 12.2436 1.27624 12.177C1.27576 12.1458 1.27528 12.1145 1.27478 12.0824C1.27549 11.9028 1.29022 11.7867 1.40625 11.6406C1.56827 11.5399 1.66638 11.5632 1.83593 11.6406Z" fill="#00567A"/>
<path d="M18.3813 6.42334C18.5344 6.44839 18.5791 6.48027 18.6719 6.60156C18.735 6.72789 18.7181 6.86633 18.7189 7.00516C18.7191 7.03753 18.7193 7.0699 18.7195 7.10326C18.7199 7.17185 18.7202 7.24045 18.7203 7.30905C18.7207 7.41373 18.7219 7.51838 18.7231 7.62306C18.7234 7.68972 18.7236 7.75637 18.7237 7.82303C18.7242 7.85424 18.7247 7.88546 18.7252 7.91762C18.7245 8.09658 18.7111 8.21482 18.5937 8.35938C18.4642 8.42415 18.3956 8.44678 18.2544 8.41064C18.1658 8.36039 18.1114 8.32019 18.0469 8.24219C18.0315 8.16861 18.0315 8.16861 18.0305 8.08496C18.0298 8.05354 18.0292 8.02211 18.0286 7.98974C18.0286 7.95592 18.0286 7.92211 18.0286 7.88727C18.0283 7.85235 18.028 7.81743 18.0277 7.78145C18.0272 7.70757 18.0271 7.63369 18.0273 7.55981C18.0273 7.44696 18.0257 7.33421 18.024 7.22137C18.0238 7.14956 18.0237 7.07774 18.0237 7.00592C18.023 6.97226 18.0224 6.93861 18.0217 6.90393C18.0237 6.73309 18.0309 6.66167 18.1373 6.52151C18.2422 6.44531 18.2422 6.44531 18.3813 6.42334Z" fill="#00567A"/>
<path d="M1.75786 6.44532C1.86594 6.52327 1.94051 6.5853 1.97114 6.71913C1.97839 6.81481 1.97922 6.9086 1.97774 7.00455C1.97783 7.03945 1.97793 7.07435 1.97802 7.11031C1.97799 7.18389 1.97746 7.25747 1.97649 7.33104C1.97515 7.44363 1.97568 7.5561 1.97644 7.66869C1.97617 7.74028 1.97579 7.81187 1.9753 7.88346C1.97549 7.91707 1.97569 7.95068 1.97588 7.98531C1.97131 8.21793 1.97131 8.21793 1.87962 8.3406C1.78179 8.40902 1.72095 8.43168 1.60161 8.4375C1.4777 8.408 1.42228 8.37953 1.34288 8.27942C1.27242 8.12825 1.27229 7.99061 1.27355 7.82715C1.27343 7.79494 1.27332 7.76274 1.27321 7.72955C1.27313 7.66166 1.27334 7.59376 1.27383 7.52587C1.27446 7.42221 1.27384 7.31862 1.27309 7.21497C1.27317 7.14885 1.27332 7.08273 1.27355 7.0166C1.27331 6.98576 1.27307 6.95491 1.27283 6.92313C1.2751 6.74439 1.29428 6.62603 1.4063 6.48438C1.5289 6.42308 1.62265 6.43157 1.75786 6.44532Z" fill="#00567A"/>
</g>
<defs>
<clipPath id="clip0_325_83">
<rect width="20" height="20" fill="white"/>
</clipPath>
</defs>
</svg>
