<svg width="20" height="20" viewBox="0 0 20 20" fill="none" xmlns="http://www.w3.org/2000/svg">
<path d="M7.50977 2.4707C8.14204 3.10297 8.36284 4.07108 8.36423 4.94007C8.36402 4.99297 8.36402 4.99297 8.36381 5.04693C8.36382 5.08508 8.36382 5.12323 8.36383 5.16254C8.3638 5.28745 8.3635 5.41235 8.36319 5.53726C8.36312 5.62434 8.36306 5.71141 8.36302 5.79849C8.36287 6.02678 8.36249 6.25507 8.36206 6.48336C8.36166 6.71668 8.36148 6.94999 8.36128 7.1833C8.36086 7.64043 8.3602 8.09756 8.35938 8.55468C8.38636 8.55376 8.41335 8.55283 8.44115 8.55188C8.56451 8.54818 8.68786 8.54589 8.81125 8.54362C8.85371 8.54214 8.89616 8.54066 8.9399 8.53913C9.20953 8.53542 9.3597 8.55489 9.5668 8.73169C9.63647 8.8071 9.70364 8.8849 9.76807 8.96484C9.80264 9.00381 9.83746 9.04257 9.87251 9.08111C9.9697 9.19015 10.0632 9.30147 10.1562 9.41406C10.336 9.6243 10.5218 9.82232 10.72 10.0153C10.7671 10.0617 10.8133 10.1089 10.8594 10.1562C10.8594 10.1691 10.8594 10.182 10.8594 10.1953C10.0344 10.1953 9.20937 10.1953 8.35938 10.1953C8.36198 11.0739 8.36198 11.0739 8.36609 11.9525C8.36782 12.2668 8.36932 12.5811 8.36996 12.8954C8.37047 13.1443 8.37153 13.3932 8.37323 13.6421C8.37411 13.7737 8.37472 13.9054 8.37468 14.0371C8.37478 14.1844 8.37583 14.3318 8.37711 14.4791C8.37692 14.5223 8.37672 14.5654 8.37652 14.6099C8.38202 15.021 8.50692 15.3611 8.78906 15.6641C9.17041 16.0196 9.63965 16.075 10.1448 16.0654C11.1586 16.0193 12.0525 15.2637 12.7114 14.5497C12.8162 14.4308 12.9131 14.3067 13.0078 14.1797C13.0312 14.1491 13.0546 14.1185 13.0788 14.0869C13.5171 13.4907 13.7741 12.8433 13.8672 12.1094C13.8286 12.116 13.79 12.1226 13.7503 12.1294C13.1843 12.2094 12.538 12.0937 12.0703 11.7578C11.6845 11.4448 11.4429 11.0124 11.3756 10.518C11.3566 10.3188 11.3527 10.1194 11.3501 9.91943C11.3488 9.85567 11.3488 9.85567 11.3474 9.79063C11.349 9.24091 11.5615 8.71195 11.9531 8.32031C12.5075 7.90872 13.1792 7.77768 13.8614 7.87246C14.1535 7.91985 14.4269 7.97995 14.6875 8.125C14.719 8.14187 14.7505 8.15873 14.783 8.17611C15.5795 8.62548 16.0908 9.45754 16.3468 10.3186C16.7246 11.6797 16.4008 13.1191 15.7422 14.3359C15.0823 15.4978 14.1555 16.4578 12.9688 17.0703C12.923 17.0941 12.923 17.0941 12.8763 17.1184C11.4853 17.8334 9.91938 18.2253 8.3815 17.7834C7.65227 17.527 7.16806 17.0452 6.81808 16.3702C6.64765 15.966 6.62361 15.5326 6.62732 15.1C6.62735 15.046 6.62734 14.992 6.62727 14.9381C6.62724 14.7935 6.62792 14.6489 6.62874 14.5043C6.62948 14.3525 6.62954 14.2007 6.62968 14.0489C6.63005 13.7622 6.631 13.4756 6.63219 13.189C6.6335 12.8623 6.63414 12.5356 6.63473 12.209C6.63595 11.5377 6.63801 10.8665 6.64062 10.1953C6.59449 10.1972 6.54835 10.199 6.50081 10.2009C6.32767 10.2073 6.15454 10.2113 5.98131 10.2146C5.90671 10.2164 5.83213 10.2188 5.75758 10.2218C5.31838 10.2394 5.0078 10.2487 4.67031 9.93919C4.55856 9.81423 4.45684 9.68574 4.36215 9.54744C4.17037 9.27034 3.92445 9.03786 3.68279 8.80493C3.62567 8.74894 3.57046 8.69103 3.51562 8.63281C3.51562 8.60703 3.51562 8.58125 3.51562 8.55468C4.54688 8.55468 5.57812 8.55468 6.64062 8.55468C6.63935 7.96714 6.63935 7.96714 6.63628 7.37961C6.63462 7.13975 6.63318 6.89992 6.63299 6.66006C6.63282 6.46654 6.6317 6.27305 6.62994 6.07955C6.62944 6.00595 6.62927 5.93235 6.62945 5.85875C6.63444 5.24357 6.63444 5.24357 6.33148 4.72327C6.0535 4.45214 5.7057 4.32327 5.31998 4.32693C5.16625 4.3431 5.02645 4.39844 4.88281 4.45312C4.84414 4.46601 4.80547 4.4789 4.76562 4.49218C4.69619 4.3556 4.62712 4.21883 4.55811 4.08203C4.53859 4.04366 4.51908 4.00529 4.49898 3.96576C4.22077 3.41302 4.22077 3.41302 4.21631 3.20801C4.28028 3.01987 4.38334 2.86067 4.49219 2.69531C4.52603 2.64334 4.52603 2.64334 4.56055 2.59033C5.33292 1.7965 6.65329 1.87775 7.50977 2.4707Z" fill="#00567A"/>
</svg>
